<?xml version="1.0" standalone="no"?><svg xmlns="http://www.w3.org/2000/svg" viewBox="0 0 1440 320" style="user-select: auto;"><path fill="#ffffff" fill-opacity="1" d="M0,192L48,181.3C96,171,192,149,288,160C384,171,480,213,576,240C672,267,768,277,864,277.3C960,277,1056,267,1152,250.7C1248,235,1344,213,1392,202.7L1440,192L1440,320L1392,320C1344,320,1248,320,1152,320C1056,320,960,320,864,320C768,320,672,320,576,320C480,320,384,320,288,320C192,320,96,320,48,320L0,320Z" style="user-select: auto;"></path></svg>